<svg xmlns="http://www.w3.org/2000/svg" viewBox="0 0 647.68 276.13"><g id="Layer_2" data-name="Layer 2"><g id="Layer_1-2" data-name="Layer 1"><path d="M85.12,103.67s44-51,19.76-63c-15-7.42-31.14-3.18-41.29,1.14-6.08,2.59-12.26,7-13.66,13.45-3.69,17.2-12.44,56.05-36.6,81.32A46.74,46.74,0,0,0,.65,162.11c-1.53,10.78-1.34,25.72,11.68,32.6s36.6,1,36.6,1l-5.67-33s-9.17-6.88-21,4.62-14.64-1.74-11.13-8.25,19.76-13.37,24.14-13.51,12-13.25,12-13.25S81.61,232.23,101,248.58C163,168,85.12,103.67,85.12,103.67ZM63.6,62.9s22.64-11.63,18,8.26-18.5,22.76-18.5,22.76ZM94.37,206.47c-4.75-3.5-26-68.78-26-68.78s20.51-.5,28,17S99.12,210,94.37,206.47Z"/><path d="M197.67,275.75c-37.77,3-72.76-13.08-77.69-15.46a.64.64,0,0,1-.3-.87c3.15-6.32,30-63.47,5.26-133.74-25.06-71.28.28-91.78,2.54-93.43a.54.54,0,0,1,.34-.12c2.44-.09,28-.51,33.34,19.41a25.69,25.69,0,0,1-8,25.68,54.91,54.91,0,0,1-8.57,5.5.65.65,0,0,1-.82-1c8.39-10.12,8.34-17.19,6-20.74a8.5,8.5,0,0,0-13.35-.83c-6,6.62-12.84,23.24,3,62.51,21.81,54.16,9.54,103.27,7.92,109.2a.66.66,0,0,0,.43.8l31.62,10.13a.64.64,0,0,0,.79-.34l8.1-17.35a.65.65,0,0,1,1.09-.15c3.35,3.86,17.8,22.65,8.33,50.78"/><path d="M197.16,210.12C222,177.44,185.85,85.35,189,72.32s9.23.45,9.23.45c4.34-7,2.61-14.61.87-19.1a11,11,0,0,0-8.85-7c-10.82-1.26-19.35,13.73-14.51,24.52,5.85,13,31.63,134.2,4.77,113.43s4.85-82.94-22-89.67-14.55,19.16-14.55,19.16.48-7.2,7.1-6.81c10.52.61,8.66,30.71,6.16,57.51a56.84,56.84,0,0,0,5.13,29.74c3.34,7,8.52,14.16,16.54,18.89a14.42,14.42,0,0,0,15.47-.39A12.8,12.8,0,0,0,197.16,210.12Z"/><path d="M275.84,240a33.94,33.94,0,0,0,16.29-20.66c8.09-29.85-9.05-52-20.2-62.76a9.61,9.61,0,0,0-15.37,3,178.79,178.79,0,0,0-9.66,28.83c-.42,1.92,3,4.2,4.34,2.71,2.9-3.35,7.61-11.67,11.33-11.3,5.18.52,8.22,10,9.6,15.79a6.33,6.33,0,0,1-2.78,6.81L234.9,224.24a2.43,2.43,0,0,1-3.61-2.81L269.11,106a19.66,19.66,0,0,0-5.86-21C251,74.47,229.82,58.22,214.93,57.33c-13.64-.82-13.61,16.11-11.57,29.23a36,36,0,0,0,13.23,22.73l13.72,10.89,5.63-22.89L224,87.43a3.7,3.7,0,0,1,.57-6.1c4.63-2.48,12.56-3.2,20.33,12.59l-31.31,99.17a89.44,89.44,0,0,0-3.42,38.46l4.25,32.81a6.41,6.41,0,0,0,9.48,4.77Z"/><path d="M310.53,162.71l0,0c-.71-13.61-3-27.77-8.26-36-12.67-19.75-22.51-20.76-22.51-20.76S308,182,298.47,210l2.79-2.93a33,33,0,0,0,9.07-20.6c.14-2.07.25-4.33.32-6.73,1.87.85,19.64,8.44,34.39-.07.07,2.42.18,4.71.32,6.8a33,33,0,0,0,9.07,20.6l2.79,2.93C347.72,182,376,105.92,376,105.92s-9.84,1-22.51,20.76c-5.26,8.2-7.52,22.25-8.25,35.8C330.1,171.13,311.58,163.18,310.53,162.71Z"/><path d="M457.34,273c-43-78.86-35.6-170.33-32.34-196.31a3.66,3.66,0,0,0-4.57-4c-12.94,3.28-42.3,33.08-52,73.31-8.19,33.89-2.45,75.18,38.75,114.26a1.76,1.76,0,0,0,3-1.44l-1.63-17.6a6.31,6.31,0,0,0-2.09-4.12c-4.09-3.63-13.59-13.4-14.87-27a54,54,0,0,1,18.68-8.85s11.37,46.85,19.84,65.16a9.41,9.41,0,0,0,6.6,5.27c4.36.92,11.5,2.41,18.86,3.82A1.72,1.72,0,0,0,457.34,273ZM404.67,172.36c-4.28.55-11,2.78-13.92,3.77a1.32,1.32,0,0,1-1.7-.94,78.14,78.14,0,0,1,7.47-55.48,69.9,69.9,0,0,1,4.74-7.58,1.3,1.3,0,0,1,2.36.77c-.08,12.1-.15,49,2.15,57.81A1.3,1.3,0,0,1,404.67,172.36Z"/><path d="M537.57,234.25a110,110,0,0,1,9.19,15.29c-25.15,20.15-60.25,25.61-72.49,26.57a7.6,7.6,0,0,1-7.15-3.76c-35.36-60.62-34.85-168.78-34-198.09a15.59,15.59,0,0,1,7.35-12.83c2.51-1.55,7.31-3.13,10.75-4.27,0,0-6.5,132.61,27.07,189.49a5.86,5.86,0,0,0,5.64,2.86c6.8-.71,21.32-2.89,28.57-9.16,0,0-9.92-16.64-14.34-1.23-2.78-1.61-6.89-7.6-8.4-12.1a9,9,0,0,1,2.67-9.76A31.92,31.92,0,0,1,503.07,211a18.58,18.58,0,0,1,19.17,4.76A145.71,145.71,0,0,1,537.57,234.25Z"/><path d="M387.26,15.52a28,28,0,0,0-16.93-2.18,18.66,18.66,0,0,0-13.18,9.32c-14.79,26.43-6.77,41.53,3.24,49.7a33.12,33.12,0,0,0,38.86,1.81c41.41-26.77,62.93-32,62.93-32-12.94,66.6,9.24,143.47,15.9,164.25a4.23,4.23,0,0,0,6.44,2.18l14.14-9.81a4.22,4.22,0,0,0,1.72-4.42C496,175.31,471.23,64.1,485,34.79c0,0,62.7-22.87,92.46.25,24.69,19.18,19.74,52.1,13.4,67.93a10.43,10.43,0,0,0,3.87,12.5h0a10.46,10.46,0,0,0,15.83-5.55c5.51-17.48,9.85-51.17-18.11-88.9C551.68-34.06,412.22,36.51,412.22,36.51l-22.9,12a10.76,10.76,0,0,1-13.76-3.1c-2-2.83-2.65-6.56,1.21-11a6,6,0,0,1,9.74,1h0a3.43,3.43,0,0,0,3,1.74h0A4.61,4.61,0,0,0,394,33.73l.6-2.39A13.82,13.82,0,0,0,387.26,15.52Z"/><path d="M539.75,36.63c-23.6-7.21-45.49,1.85-45.49,1.85s-11.43,150.11,60.86,196.21l24.34-32.21s-14.25-16.27-27.73-18.75a2,2,0,0,0-2.08,3c1.77,2.88,5.07,7.22,4,10.94a2.42,2.42,0,0,1-4.12.9c-6.12-6.72-24.58-28.63-30-53.5a6.14,6.14,0,0,1,3.58-7c3.36-1.43,8-3,11.79-2.57a.75.75,0,0,0,.76-1.1c-2.34-4.18-8.91-16.85-8.67-26.34a.74.74,0,0,0-1.28-.53,34.61,34.61,0,0,1-7.16,5.82,4.13,4.13,0,0,1-6.18-2.73c-1.94-9.71-5.88-31.32-5.52-45.52a8.27,8.27,0,0,1,9.35-8.06c4.86.72,7.63,7.31,2.07,19.4a1.13,1.13,0,0,0,1.74,1.34C526,73,538.33,53.47,539.75,36.63"/><path d="M647.44,163.43c-.14-3.17-2.7-8.55-16.09-9.84a2.61,2.61,0,0,0-2.78,3.21l.38,1.54a2.65,2.65,0,0,0,3.33,1.9c1.13-.33,2.29-.39,2.67.52.82,2-.33,9.67-9.51,5.09S620,144.7,612.5,139.45c-6.47-4.49-35.8-25.31-43.79-31.14a2.8,2.8,0,0,1-.77-3.68c9.26-15.81,9.4-40.75,8.33-52a23.66,23.66,0,0,0-7.62-15.39c-7.58-6.79-15.91-5.28-21.23-3.07A8.77,8.77,0,0,0,542,42.63c.78,21,5.54,98.16,33.7,134.28a39.05,39.05,0,0,1,8.43,26.64c-.32,4.66-6.16,14-8.53,19.62a4.9,4.9,0,0,0,4.47,6.81,5.06,5.06,0,0,0,1.2-.15l.17-.05c15.17-5.35,23.51-41,17-50.17-5.32-7.46-22.28-37.2-28.46-48.09a1.15,1.15,0,0,1,1.62-1.53l12.11,7.78c3.15,2,6.31,4,9.54,5.88,6.13,3.56,9.54,7.06,11.79,10.9s3.39,8,5,12.84c.56,1.76,1.33,6.47,3.12,8.68,5.38,6.6,7.57,10.3,22.47,8.5h0c5.24-.72,11.73-11.15,12.13-16.76C647.73,166.86,647.49,164.38,647.44,163.43ZM559.75,95a1.36,1.36,0,0,1-2.28-.51c-2.83-8.51-4.07-31.36-4.38-37.83a1.75,1.75,0,0,1,1.81-1.82c3.62.15,11.26,2.09,12.38,15.65S562.58,92,559.75,95Z"/></g></g></svg>