<svg xmlns="http://www.w3.org/2000/svg" viewBox="0 0 2686.91 1145.53"><defs><style>.cls-1{fill:#ffcd34;}</style></defs><g id="Layer_2" data-name="Layer 2"><g id="Layer_1-2" data-name="Layer 1"><path class="cls-1" d="M353.12,430.09s182.6-211.7,82-261.49c-62.23-30.78-129.18-13.2-171.26,4.72-25.26,10.75-50.89,29-56.67,55.82-15.34,71.34-51.6,232.53-151.86,337.34-28,29.22-46.84,66-52.58,106-6.36,44.73-5.56,106.71,48.45,135.25C104.74,836.15,203,812,203,812L179.45,675s-38-28.54-87.31,19.19S31.42,686.89,46,659.91s82-55.48,100.13-56,49.8-55,49.8-55,142.67,414.53,222.91,482.33C676.16,697.1,353.12,430.09,353.12,430.09ZM263.86,260.93s93.9-48.23,74.71,34.28-76.77,94.4-76.77,94.4ZM391.49,856.55C371.8,842,283.59,571.2,283.59,571.2s85.09-2.06,116.2,70.58S411.22,871.1,391.49,856.55Z"/><path class="cls-1" d="M820,1144c-156.7,12.49-301.82-54.28-322.31-64.16a2.69,2.69,0,0,1-1.24-3.62c13.09-26.21,124.33-263.3,21.84-554.8-104-295.72,1.15-380.75,10.52-387.61a2.58,2.58,0,0,1,1.43-.5c10.13-.36,116.28-2.13,138.31,80.52,10.33,38.76-3.23,79.84-33.18,106.54-8.17,7.28-22,15.14-35.57,22.83a2.7,2.7,0,0,1-3.42-4.07c34.82-42,34.63-71.32,24.92-86.05-12.54-19-40.09-20.33-55.39-3.46C541,277.07,512.67,346,578.27,509c90.46,224.69,39.58,428.41,32.86,453a2.7,2.7,0,0,0,1.79,3.28l131.17,42.06a2.71,2.71,0,0,0,3.28-1.43l33.59-72a2.71,2.71,0,0,1,4.5-.63c13.94,16,73.88,94,34.57,210.7"/><path class="cls-1" d="M817.92,871.69C920.91,736.13,771,354.07,784,300s38.29,1.86,38.29,1.86c18-29,10.85-60.62,3.59-79.25-6-15.5-19.91-27.17-36.69-29.12-44.9-5.22-80.27,57-60.18,101.75,24.26,54,131.2,556.74,19.77,470.54s20.13-344.08-91.3-372S597,473.3,597,473.3s2-29.87,29.47-28.26c43.63,2.56,35.94,127.41,25.55,238.59-3.95,42.26,3,85,21.3,123.39,13.84,29,35.33,58.76,68.62,78.36,19.9,11.73,45.23,11.53,64.18-1.64C811.05,880.35,814.69,876,817.92,871.69Z"/><path class="cls-1" d="M1144.35,995.82c33-18.48,57.67-49.2,67.56-85.69,33.57-123.87-37.52-215.9-83.82-260.39-19.75-19-52.25-12.55-63.73,12.32-15.13,32.77-33.81,90.71-40.09,119.61-1.73,8,12.65,17.41,18,11.24,12-13.91,31.58-48.41,47-46.86,21.49,2.15,34.08,41.39,39.81,65.48a26.27,26.27,0,0,1-11.54,28.25L974.49,930.27a10.09,10.09,0,0,1-15-11.66l156.9-478.74a81.5,81.5,0,0,0-24.31-87.21c-50.88-43.74-138.7-111.15-200.47-114.84-56.58-3.39-56.44,66.85-48,121.27a149.73,149.73,0,0,0,54.87,94.3l56.93,45.18,23.35-94.94-49.34-40.92c-8.34-6.92-7.2-20.21,2.36-25.32,19.19-10.27,52.09-13.27,84.34,52.23L886.23,801a371.55,371.55,0,0,0-14.16,159.55l17.63,136.13A26.55,26.55,0,0,0,929,1116.47Z"/><path class="cls-1" d="M1288.24,675l-.2-.09c-3-56.47-12.35-115.22-34.28-149.4-52.54-81.93-93.39-86.11-93.39-86.11s117.25,315.43,77.83,431.66L1249.78,859a136.72,136.72,0,0,0,37.63-85.45c.57-8.59,1-18,1.35-27.92,7.75,3.5,81.47,35,142.63-.32.32,10.07.77,19.55,1.34,28.24A136.78,136.78,0,0,0,1470.37,859L1482,871.09c-39.42-116.23,77.83-431.66,77.83-431.66s-40.85,4.18-93.4,86.11c-21.81,34-31.21,92.32-34.23,148.51C1369.43,709.93,1292.6,677,1288.24,675Z"/><path class="cls-1" d="M1897.29,1132.45c-178.51-327.14-147.68-706.59-134.16-814.39a15.19,15.19,0,0,0-19-16.54c-53.71,13.6-175.48,137.23-215.81,304.14-34,140.59-10.16,311.89,160.73,474a7.32,7.32,0,0,0,12.31-6l-6.8-73a26.15,26.15,0,0,0-8.66-17.07c-17-15.05-56.37-55.59-61.67-112,0,0,29.22-23.84,77.5-36.73,0,0,47.17,194.35,82.28,270.32a39.17,39.17,0,0,0,27.39,21.85c18.07,3.81,47.71,10,78.25,15.87A7.14,7.14,0,0,0,1897.29,1132.45ZM1678.78,715c-17.74,2.28-45.8,11.52-57.74,15.63a5.45,5.45,0,0,1-7-3.9c-23.63-102.13,5.51-183.32,31-230.16a299.94,299.94,0,0,1,19.69-31.45,5.39,5.39,0,0,1,9.78,3.23c-.33,50.19-.62,203.42,8.91,239.81A5.41,5.41,0,0,1,1678.78,715Z"/><path class="cls-1" d="M2230.15,971.79c26,37.11,38.1,63.43,38.1,63.43-104.35,83.59-249.94,106.25-300.74,110.21a31.52,31.52,0,0,1-29.67-15.57c-146.66-251.51-144.54-700.18-141-821.8a64.68,64.68,0,0,1,30.48-53.21c10.4-6.44,30.35-13,44.59-17.7,0,0-26.94,550.12,112.32,786.1a24.27,24.27,0,0,0,23.38,11.84c28.23-2.91,88.44-12,118.54-38,0,0-41.15-69-59.51-5.1-11.52-6.67-28.57-31.53-34.85-50.17a37.58,37.58,0,0,1,11.1-40.5c15.52-13.36,30.57-21.32,44.11-25.9,28-9.46,58.9-1.36,79.57,19.75A611.13,611.13,0,0,1,2230.15,971.79Z"/><path class="cls-1" d="M1606.55,64.39c-25-12.17-50.33-12.35-70.21-9A77.37,77.37,0,0,0,1481.66,94c-61.37,109.66-28.1,172.31,13.43,206.2,46,37.53,111.37,39.71,161.22,7.48,171.77-111,261-132.75,261-132.75-53.69,276.31,38.32,595.22,66,681.4a17.56,17.56,0,0,0,26.74,9.06l58.66-40.69a17.57,17.57,0,0,0,7.11-18.37c-18.23-79.06-120.9-540.43-63.61-662,0,0,260.11-94.87,383.54,1,102.46,79.6,81.9,216.15,55.62,281.82a43.24,43.24,0,0,0,16,51.85h0a43.38,43.38,0,0,0,65.66-23c22.86-72.52,40.89-212.28-75.1-368.8-169.33-228.48-747.86,64.27-747.86,64.27l-95,49.9c-19.6,10.29-44.25,5.2-57.08-12.84-8.36-11.75-11-27.22,5-45.58,11.25-12.91,32-10.65,40.41,4.25h0a14.2,14.2,0,0,0,12.58,7.2h0a19.14,19.14,0,0,0,18.29-14.47l2.5-9.92A57.34,57.34,0,0,0,1606.55,64.39Z"/><path class="cls-1" d="M2239.18,152c-97.92-29.92-188.71,7.65-188.71,7.65s-47.43,622.73,252.46,814l101-133.63s-59.11-67.51-115.05-77.79a8.31,8.31,0,0,0-8.63,12.51c7.33,11.94,21,30,16.76,45.35-2.08,7.5-11.86,9.52-17.09,3.76-25.37-27.89-101.95-118.77-124.34-221.93A25.5,25.5,0,0,1,2170.41,573c14-6,33.36-12.39,48.94-10.67a3.1,3.1,0,0,0,3.13-4.56c-9.68-17.35-37-69.9-35.95-109.27a3.07,3.07,0,0,0-5.3-2.2,145.25,145.25,0,0,1-29.72,24.15,17.16,17.16,0,0,1-25.64-11.35c-8.06-40.26-24.38-129.92-22.89-188.84.51-20.45,18.53-36.42,38.76-33.43s31.66,30.32,8.62,80.49a4.67,4.67,0,0,0,7.21,5.56c24.48-19.95,75.73-101,81.61-170.86"/><path class="cls-1" d="M2685.94,678c-.58-13.14-11.23-35.48-66.77-40.83a10.85,10.85,0,0,0-11.52,13.35l1.58,6.38a11,11,0,0,0,13.8,7.87c4.68-1.36,9.49-1.61,11.06,2.16,3.4,8.16-1.36,40.12-39.41,21.1s-22.47-87.75-53.72-109.51c-26.81-18.61-148.5-105-181.66-129.19a11.61,11.61,0,0,1-3.19-15.25c38.42-65.61,39-169.06,34.57-215.73-2.33-24.46-13.35-47.46-31.63-63.83-31.42-28.18-66-21.93-88.07-12.77a36.4,36.4,0,0,0-22.51,35.11c3.23,87.16,23,407.22,139.8,557.05,24.58,31.5,37.72,70.67,35,110.54-1.32,19.31-25.57,58.11-35.39,81.4a20.32,20.32,0,0,0,18.52,28.23,20.72,20.72,0,0,0,5-.63c.25-.08.49-.12.7-.2,63-22.18,97.57-170.1,70.38-208.11C2460.35,714.19,2390,590.8,2364.39,545.6a4.75,4.75,0,0,1,6.7-6.33l50.26,32.28c13.05,8.37,26.15,16.62,39.58,24.37,25.41,14.8,39.54,29.3,48.91,45.22s14,33.12,20.51,53.3c2.35,7.27,5.52,26.83,13,36,22.3,27.4,31.37,42.73,93.18,35.28h0c21.76-3,48.7-46.27,50.36-69.52C2687.15,692.24,2686.15,681.92,2685.94,678ZM2322.12,394.16a5.64,5.64,0,0,1-9.45-2.12c-11.73-35.31-16.87-130.1-18.15-157a7.23,7.23,0,0,1,7.5-7.54c15,.62,46.71,8.66,51.35,65C2358.06,349,2333.89,381.76,2322.12,394.16Z"/></g></g></svg>