<?xml version="1.0" standalone="no"?>
<!DOCTYPE svg PUBLIC "-//W3C//DTD SVG 20010904//EN"
 "http://www.w3.org/TR/2001/REC-SVG-20010904/DTD/svg10.dtd">
<svg version="1.0" xmlns="http://www.w3.org/2000/svg"
 width="2687.000000pt" height="2687.000000pt" viewBox="0 0 2687.000000 2687.000000"
 preserveAspectRatio="xMidYMid meet">
<metadata>
Created by potrace 1.14, written by Peter Selinger 2001-2017
</metadata>
<g transform="translate(0.000000,2687.000000) scale(0.100000,-0.100000)"
fill="#000000" stroke="none">
<path d="M22139 19165 c-2 -1 -51 -5 -109 -9 -101 -6 -147 -9 -255 -21 -27 -3
-72 -7 -100 -10 -78 -9 -136 -16 -325 -45 -132 -20 -165 -26 -205 -34 -11 -2
-60 -12 -110 -21 -49 -9 -94 -18 -100 -19 -5 -2 -28 -6 -50 -10 -190 -37 -570
-131 -890 -222 -995 -283 -2300 -799 -3100 -1227 -89 -48 -314 -166 -670 -353
-136 -71 -202 -91 -295 -89 -213 5 -403 167 -414 354 -8 125 92 295 201 343
108 48 230 12 308 -91 49 -64 94 -90 147 -85 67 7 138 56 159 110 22 60 51
194 53 253 9 191 -93 392 -249 496 -238 158 -654 196 -928 85 -144 -59 -274
-164 -355 -285 -113 -171 -258 -504 -312 -720 -49 -192 -55 -245 -54 -450 1
-155 4 -180 31 -285 34 -131 98 -273 166 -373 200 -290 514 -499 847 -562 129
-25 140 -26 254 -27 176 -1 316 22 480 79 122 42 198 81 341 172 115 73 506
315 562 347 726 423 1280 699 1748 869 179 65 255 87 255 72 0 -7 -11 -70 -24
-142 -13 -71 -27 -155 -31 -185 -4 -30 -9 -64 -10 -75 -20 -138 -44 -340 -50
-410 -2 -27 -7 -86 -10 -130 -4 -44 -8 -96 -10 -115 -27 -333 -27 -1326 0
-1600 2 -19 6 -78 10 -130 3 -52 8 -113 10 -135 2 -22 7 -74 10 -115 3 -41 8
-91 10 -110 5 -40 12 -111 20 -190 7 -66 45 -372 49 -397 2 -10 7 -43 11 -73
12 -100 27 -202 40 -280 3 -16 7 -45 10 -62 3 -18 10 -58 15 -88 5 -30 12 -71
15 -90 3 -19 10 -60 16 -90 6 -30 12 -66 14 -80 4 -30 11 -71 30 -165 8 -38
16 -81 19 -95 2 -14 14 -72 26 -130 12 -58 24 -116 26 -130 48 -267 244 -1044
365 -1450 112 -376 118 -390 176 -430 42 -29 123 -34 169 -10 16 8 114 74 219
147 465 323 424 291 449 340 20 40 22 92 6 158 -6 28 -13 57 -15 65 -2 8 -10
46 -19 85 -9 38 -24 103 -32 145 -18 82 -18 83 -27 120 -9 33 -77 358 -83 390
-2 14 -9 45 -14 70 -26 124 -70 339 -75 368 -3 18 -12 64 -20 102 -8 38 -17
84 -20 102 -3 18 -8 40 -10 48 -2 8 -7 31 -10 50 -5 31 -19 105 -31 168 -2 12
-6 32 -8 45 -2 12 -9 51 -16 87 -7 36 -14 76 -16 90 -6 31 -34 186 -41 220 -3
14 -6 34 -8 45 -1 11 -21 128 -44 260 -22 132 -43 258 -46 280 -3 22 -8 51
-10 65 -3 14 -7 43 -11 65 -3 22 -12 83 -20 135 -9 52 -18 113 -20 135 -3 22
-7 47 -9 55 -2 8 -7 42 -10 75 -4 33 -8 67 -10 75 -2 8 -7 38 -11 65 -3 28 -7
57 -9 65 -2 8 -6 47 -10 85 -4 39 -9 79 -11 90 -5 25 -31 239 -39 325 -4 36
-8 79 -10 95 -2 17 -6 55 -10 85 -3 30 -7 71 -10 90 -2 19 -7 71 -11 115 -3
44 -8 94 -9 110 -4 35 -16 209 -20 275 -2 25 -6 108 -11 185 -15 269 -9 909
11 1013 1 9 6 49 9 87 4 39 9 77 11 85 2 8 6 32 10 53 16 109 56 261 97 362
l20 50 111 38 c95 31 284 89 337 102 8 2 76 19 150 39 200 52 215 56 340 82
129 28 201 42 245 49 17 3 53 10 80 15 28 5 68 12 90 15 22 3 51 7 65 10 36 6
190 27 220 30 14 1 54 5 90 9 126 14 146 15 290 23 838 42 1445 -109 1875
-469 406 -339 647 -816 702 -1388 10 -107 10 -406 -1 -525 -22 -255 -86 -537
-191 -834 -55 -155 -52 -259 10 -386 86 -176 310 -269 509 -211 108 32 222
131 268 236 25 55 90 292 114 414 52 270 69 448 69 746 0 198 -7 339 -19 420
-3 14 -7 49 -10 79 -4 30 -9 64 -11 75 -2 12 -7 37 -9 56 -22 147 -109 500
-145 585 -5 11 -24 63 -41 115 -169 492 -561 1153 -864 1456 -186 185 -430
347 -656 433 -30 12 -64 25 -75 30 -166 72 -532 154 -785 176 -41 4 -86 9
-100 12 -28 5 -636 14 -641 8z"/>
<path d="M5268 17814 c-105 -77 -250 -284 -336 -480 -63 -142 -135 -385 -156
-519 -10 -70 -19 -121 -22 -139 -2 -10 -6 -53 -9 -95 -4 -42 -9 -96 -11 -121
-6 -56 -6 -478 0 -505 2 -11 7 -65 11 -120 4 -55 8 -106 10 -115 2 -8 6 -44
10 -80 3 -36 8 -72 10 -80 2 -8 7 -39 10 -69 4 -30 9 -63 11 -75 2 -12 7 -37
10 -56 19 -112 83 -417 109 -520 3 -8 11 -43 19 -77 35 -144 133 -461 240
-783 95 -286 161 -497 181 -580 2 -8 21 -87 43 -176 22 -88 43 -173 45 -190 3
-16 17 -87 31 -159 36 -182 34 -175 56 -325 27 -179 28 -189 45 -360 3 -27 7
-71 10 -97 6 -59 16 -213 21 -313 4 -95 4 -592 -1 -685 -2 -38 -6 -108 -9
-155 -4 -47 -9 -114 -12 -150 -2 -36 -6 -81 -9 -100 -2 -19 -7 -60 -10 -90 -4
-30 -8 -66 -10 -80 -2 -14 -7 -47 -10 -74 -9 -79 -34 -245 -51 -336 -9 -47
-18 -96 -21 -110 -2 -14 -11 -59 -20 -100 -8 -41 -16 -82 -18 -90 -84 -410
-284 -1019 -446 -1353 -15 -32 -25 -65 -22 -74 16 -40 576 -259 978 -382 331
-101 798 -202 1084 -236 30 -4 62 -8 72 -10 10 -2 46 -6 81 -10 35 -3 81 -8
103 -10 146 -15 283 -20 515 -20 310 1 387 4 399 19 7 10 37 105 62 196 15 56
30 132 35 175 3 22 7 47 9 55 13 48 20 158 20 335 0 205 -4 261 -31 400 -40
203 -89 351 -181 542 -56 118 -211 354 -258 393 -23 19 -42 5 -68 -52 -46
-100 -99 -213 -138 -296 -22 -45 -69 -147 -105 -225 -36 -78 -71 -148 -76
-155 -6 -7 -20 -10 -32 -6 -12 3 -127 39 -256 81 -129 41 -291 93 -360 115
-69 21 -156 50 -195 63 -71 23 -431 138 -472 149 -41 12 -45 29 -27 98 9 34
18 74 21 88 2 14 9 45 14 70 12 50 11 45 44 225 13 72 26 150 29 175 11 94 17
136 21 155 2 11 7 49 10 85 3 36 8 74 10 86 2 11 7 65 10 120 4 54 8 110 11
124 6 39 17 380 17 535 0 142 -11 515 -18 570 -2 17 -6 68 -10 115 -14 160
-26 269 -40 370 -37 246 -39 263 -60 370 -8 41 -16 86 -19 100 -9 54 -68 311
-96 415 -81 311 -167 568 -307 924 -201 506 -323 960 -370 1375 -16 135 -9
481 12 599 3 15 7 38 9 51 13 73 59 213 96 291 70 148 162 258 257 306 62 31
74 34 158 34 75 -1 99 -5 145 -27 137 -64 203 -183 195 -352 -7 -167 -89 -351
-247 -559 -55 -73 -68 -105 -43 -114 13 -4 217 112 301 172 198 141 362 387
414 618 5 23 12 56 15 72 14 60 13 285 -1 353 -57 281 -190 483 -420 637 -225
152 -534 239 -881 250 -95 2 -105 1 -135 -21z"/>
<path d="M22935 17818 c-138 -25 -267 -77 -325 -131 -45 -40 -90 -101 -90
-121 0 -8 -4 -18 -10 -21 -10 -6 -25 -91 -24 -140 3 -125 26 -529 39 -695 3
-30 7 -84 10 -120 3 -36 7 -90 10 -120 3 -30 7 -82 10 -115 3 -33 7 -78 10
-100 2 -22 7 -67 10 -100 3 -33 7 -76 10 -95 2 -19 7 -57 10 -85 3 -27 8 -68
10 -90 3 -22 7 -62 10 -90 3 -27 7 -63 10 -80 5 -33 11 -74 20 -150 6 -45 59
-402 70 -465 2 -14 7 -41 10 -60 3 -19 7 -46 10 -60 3 -14 7 -41 10 -60 8 -50
42 -226 70 -360 13 -63 27 -130 30 -149 3 -19 7 -37 9 -40 2 -3 7 -22 10 -41
3 -19 15 -73 27 -120 11 -47 23 -96 26 -110 2 -14 16 -68 30 -120 14 -52 26
-99 27 -105 2 -5 8 -30 15 -55 220 -802 485 -1417 804 -1866 45 -63 113 -159
150 -212 132 -186 246 -466 273 -667 3 -27 9 -70 13 -95 4 -25 6 -101 5 -170
-2 -177 -20 -230 -207 -600 -140 -277 -166 -340 -161 -396 7 -84 53 -144 131
-173 60 -22 111 -17 178 16 84 43 136 83 217 165 254 258 461 771 515 1273 10
90 10 325 0 390 -15 93 -56 193 -116 282 -90 135 -338 540 -449 734 -11 19
-56 95 -100 170 -44 75 -91 156 -105 180 -13 24 -53 94 -89 155 -36 61 -68
117 -71 125 -4 8 -17 30 -28 49 -100 166 -309 544 -309 558 0 24 19 42 44 42
12 0 66 -30 121 -65 55 -35 143 -92 195 -125 52 -33 158 -101 235 -150 77 -50
216 -136 310 -193 340 -205 473 -330 590 -562 54 -106 141 -356 194 -555 44
-168 66 -214 150 -320 202 -255 312 -313 601 -314 187 -1 290 9 345 33 154 68
333 304 416 549 26 77 28 91 24 205 -3 67 -9 139 -14 159 -21 90 -105 184
-212 238 -58 30 -165 69 -209 77 -14 2 -41 8 -60 13 -41 11 -144 24 -182 23
-49 0 -86 -23 -101 -61 -15 -37 -14 -56 4 -125 17 -64 80 -104 137 -88 42 13
94 5 109 -15 30 -41 5 -165 -44 -218 -116 -125 -416 -23 -525 179 -23 44 -74
180 -83 225 -2 8 -13 55 -25 104 -11 50 -23 105 -26 124 -11 71 -65 245 -95
306 -17 35 -50 83 -73 107 -33 34 -349 265 -443 324 -9 6 -24 15 -32 22 -9 7
-122 87 -251 179 -129 92 -399 284 -600 428 -201 143 -403 287 -449 320 -132
95 -148 115 -141 180 1 10 26 66 55 125 81 161 161 377 190 511 2 8 13 53 24
100 11 47 23 101 26 120 3 19 10 58 15 85 5 28 12 70 15 95 3 25 8 56 10 70 2
14 6 54 10 90 4 36 8 76 10 90 23 158 24 762 1 930 -14 97 -19 127 -27 143 -6
9 -7 17 -5 17 12 0 -82 222 -96 228 -5 2 -8 8 -8 14 0 34 -153 207 -240 271
-92 68 -207 122 -306 142 -53 11 -238 13 -289 3z m247 -959 c129 -51 230 -161
288 -316 23 -62 26 -73 41 -143 5 -25 12 -56 15 -70 3 -14 7 -101 9 -195 3
-135 -1 -192 -16 -277 -22 -124 -59 -246 -102 -338 -63 -136 -192 -310 -229
-310 -41 0 -55 15 -73 80 -22 84 -60 275 -70 360 -3 25 -7 56 -10 70 -3 23
-11 85 -20 170 -2 19 -7 69 -11 110 -3 41 -7 82 -9 90 -2 8 -6 60 -10 115 -4
55 -8 116 -10 135 -2 19 -6 85 -10 145 -4 61 -8 137 -10 170 -12 195 -5 229
49 237 34 5 122 -11 178 -33z"/>
<path d="M21508 17765 c-2 -1 -55 -5 -118 -9 -123 -7 -179 -12 -220 -20 -14
-3 -45 -8 -70 -11 -25 -3 -65 -10 -90 -15 -25 -5 -56 -12 -70 -14 -141 -23
-428 -112 -434 -135 -5 -15 -12 -167 -22 -451 -9 -277 -4 -955 11 -1250 2 -52
7 -151 10 -220 4 -69 8 -144 10 -167 2 -23 7 -86 10 -140 3 -54 8 -120 11
-148 3 -27 7 -77 9 -110 5 -67 14 -167 20 -205 2 -14 7 -58 10 -98 4 -41 9
-88 11 -105 2 -18 6 -57 9 -87 3 -30 8 -66 10 -80 3 -14 7 -45 10 -70 11 -92
17 -137 31 -225 7 -49 16 -106 18 -125 8 -58 16 -112 27 -170 6 -30 17 -93 24
-140 21 -122 23 -131 51 -275 14 -71 39 -188 55 -259 16 -70 31 -138 33 -150
4 -21 104 -405 130 -501 83 -298 258 -785 384 -1071 84 -191 193 -407 302
-599 80 -140 263 -422 333 -510 4 -5 37 -48 73 -94 110 -142 145 -182 300
-342 184 -190 372 -350 565 -480 l86 -58 19 22 c11 12 60 76 109 142 50 66 92
122 95 125 3 3 30 39 60 80 30 41 57 77 60 80 3 3 53 68 110 145 58 77 110
145 115 152 17 21 26 32 229 303 109 146 203 270 208 277 12 15 -172 202 -340
346 -256 219 -575 398 -779 436 -56 11 -99 -6 -113 -45 -15 -40 -14 -44 55
-159 106 -173 139 -277 116 -363 -15 -55 -55 -79 -122 -73 -30 2 -119 99 -300
326 -310 388 -590 841 -754 1215 -25 58 -50 114 -55 125 -45 99 -122 335 -161
495 -42 170 -31 245 47 324 72 71 328 154 496 160 49 2 94 8 100 14 8 8 -14
62 -75 184 -47 95 -93 191 -102 213 -31 74 -87 229 -111 310 -24 78 -28 95
-39 153 -3 15 -8 33 -10 39 -5 14 -17 139 -19 195 -1 21 -9 45 -18 54 -15 15
-21 11 -85 -50 -84 -80 -200 -168 -260 -197 -84 -41 -188 -7 -226 73 -13 28
-37 134 -62 278 -3 19 -10 53 -15 75 -4 22 -11 60 -14 85 -3 25 -8 56 -11 70
-3 14 -10 54 -16 90 -5 36 -12 76 -14 90 -2 14 -9 59 -16 100 -6 41 -12 84
-14 95 -6 39 -25 181 -30 225 -3 25 -8 56 -10 70 -2 14 -6 57 -10 95 -3 39 -8
88 -10 110 -16 160 -19 235 -20 420 0 210 0 210 28 267 64 131 180 204 318
200 72 -2 120 -23 167 -71 58 -60 77 -125 77 -261 0 -132 -22 -230 -86 -390
-44 -110 -45 -113 -23 -134 26 -27 50 -18 109 42 187 186 404 534 560 897 44
103 129 339 139 388 3 12 7 32 10 45 4 12 8 31 11 43 2 11 6 28 9 37 3 9 8 33
11 52 3 19 10 64 16 100 16 93 13 101 -46 117 -164 43 -356 77 -505 88 -81 7
-318 14 -322 10z"/>
<path d="M3629 17656 c-2 -2 -56 -6 -119 -10 -156 -8 -195 -13 -337 -42 -192
-40 -471 -133 -617 -206 -77 -38 -161 -92 -227 -144 -147 -117 -222 -234 -264
-414 -13 -58 -50 -211 -80 -340 -31 -129 -58 -244 -60 -255 -8 -40 -124 -431
-164 -555 -235 -726 -530 -1323 -899 -1820 -47 -63 -94 -124 -103 -135 -45
-52 -198 -225 -235 -265 -24 -25 -53 -58 -66 -75 -12 -16 -31 -39 -41 -50 -34
-37 -145 -209 -191 -297 -82 -155 -172 -413 -190 -551 -3 -18 -7 -48 -10 -67
-23 -133 -29 -478 -11 -585 41 -248 122 -427 261 -574 169 -180 387 -275 709
-309 131 -13 539 -5 630 13 11 2 42 7 69 10 27 3 86 13 133 21 46 8 100 17
120 20 20 3 46 10 59 14 12 5 25 6 29 2 4 -4 5 7 1 23 -3 17 -8 48 -11 70 -3
23 -8 52 -10 65 -3 14 -7 39 -10 55 -3 17 -10 53 -15 80 -5 28 -11 64 -14 80
-3 26 -27 162 -41 245 -3 14 -14 79 -25 145 -11 66 -22 129 -24 140 -8 41 -39
221 -41 243 -2 13 -11 67 -20 120 -20 115 -31 129 -132 163 -58 21 -86 24
-193 23 -111 0 -133 -4 -200 -28 -78 -29 -207 -101 -256 -143 -16 -13 -58 -49
-93 -81 -102 -91 -104 -93 -149 -124 -176 -122 -319 -96 -373 67 -32 100 -13
283 42 383 110 202 611 488 977 558 108 21 159 58 283 209 67 81 186 252 215
307 9 17 19 26 24 22 5 -5 38 -93 73 -195 36 -102 82 -230 102 -285 20 -54 54
-148 77 -209 60 -166 98 -268 107 -290 15 -35 39 -97 67 -175 15 -41 62 -165
105 -275 42 -110 94 -243 114 -295 20 -52 43 -108 50 -125 7 -16 39 -95 70
-175 32 -80 68 -169 81 -198 13 -29 24 -55 24 -58 0 -5 71 -177 90 -219 5 -11
52 -119 104 -240 51 -121 105 -245 119 -275 14 -30 62 -136 107 -235 78 -169
263 -546 344 -698 86 -163 254 -447 284 -483 5 -5 15 -21 22 -34 7 -13 21 -33
31 -44 11 -11 19 -25 19 -32 0 -7 4 -14 8 -16 4 -1 28 -30 54 -63 54 -71 163
-185 176 -185 10 0 187 245 285 395 344 529 589 1151 667 1690 6 44 13 91 15
105 2 14 6 57 10 95 3 39 8 90 11 115 16 171 -2 615 -31 770 -3 14 -8 42 -11
64 -3 21 -8 48 -10 60 -2 11 -7 37 -10 56 -19 110 -96 407 -115 442 -5 10 -9
22 -9 28 0 6 -21 68 -46 138 -232 642 -647 1286 -1175 1823 -68 70 -149 149
-180 176 l-57 51 80 98 c44 55 87 108 96 119 131 158 444 612 547 793 102 177
245 457 245 477 0 3 9 24 19 48 41 91 102 290 117 381 3 21 8 48 10 60 5 24 6
200 1 231 -20 127 -73 233 -157 314 -100 96 -371 206 -580 236 -24 4 -47 8
-50 10 -3 2 -52 6 -110 10 -58 4 -108 9 -111 11 -3 2 -8 2 -10 0z m-359 -983
c159 -71 181 -274 68 -623 -120 -372 -373 -656 -681 -766 l-38 -14 6 433 c11
757 13 846 19 856 14 22 286 116 386 134 64 11 196 0 240 -20z m-280 -3228
c137 -14 318 -65 455 -131 164 -78 309 -191 406 -318 21 -28 43 -56 48 -62 47
-58 162 -331 177 -419 1 -11 8 -39 13 -63 6 -23 13 -57 15 -75 3 -18 7 -44 10
-57 6 -26 12 -67 21 -160 4 -30 9 -71 11 -90 10 -61 12 -601 3 -695 -4 -49
-11 -121 -14 -160 -3 -38 -8 -77 -10 -85 -2 -8 -6 -37 -10 -64 -11 -86 -35
-205 -61 -292 -36 -126 -86 -194 -129 -178 -32 13 -124 180 -201 364 -56 137
-136 335 -138 345 -1 6 -10 27 -19 49 -9 21 -17 40 -17 43 0 2 -31 88 -69 191
-179 483 -575 1633 -636 1849 -7 25 -22 24 145 8z"/>
<path d="M7765 17233 c-49 -9 -144 -49 -193 -80 -72 -46 -153 -129 -206 -211
-43 -68 -101 -203 -111 -262 -3 -18 -8 -37 -11 -42 -12 -19 -11 -212 2 -273
12 -58 24 -95 71 -220 37 -97 181 -631 209 -770 11 -57 14 -68 18 -83 3 -9 7
-28 10 -42 3 -14 14 -68 26 -120 27 -123 78 -365 85 -410 3 -19 10 -51 15 -70
5 -19 12 -51 15 -70 4 -19 10 -57 15 -85 5 -27 11 -59 13 -70 6 -28 16 -83 23
-130 3 -22 7 -42 9 -45 2 -3 6 -26 10 -50 5 -39 15 -96 39 -235 11 -60 37
-226 41 -258 2 -17 9 -61 14 -97 20 -129 46 -327 67 -510 2 -25 7 -61 9 -80 3
-19 7 -61 10 -92 3 -32 7 -82 10 -110 36 -379 38 -790 6 -1013 -44 -304 -159
-439 -324 -381 -106 38 -268 176 -360 307 -149 212 -235 493 -264 864 -13 178
-7 625 12 892 5 70 9 130 22 358 12 208 9 660 -5 740 -7 39 -15 84 -18 100
-23 142 -101 309 -182 393 -77 79 -181 136 -283 156 -13 2 -46 9 -73 16 -80
18 -136 23 -236 23 -117 -1 -151 -7 -217 -39 -191 -91 -229 -321 -110 -673 43
-129 43 -129 66 -44 17 61 70 134 121 165 93 57 221 44 294 -30 64 -63 126
-209 151 -357 3 -16 8 -37 10 -45 2 -8 7 -44 10 -80 4 -36 10 -94 15 -130 8
-67 5 -752 -4 -875 -3 -38 -8 -113 -11 -165 -3 -52 -8 -115 -10 -140 -2 -25
-7 -83 -10 -130 -3 -47 -8 -107 -11 -135 -3 -27 -7 -68 -9 -90 -2 -22 -7 -80
-11 -130 -11 -109 -11 -461 -1 -530 4 -27 12 -84 18 -125 30 -216 131 -518
237 -710 19 -36 40 -74 46 -85 25 -45 92 -144 139 -205 52 -68 282 -300 297
-300 5 0 15 -6 23 -14 32 -32 160 -108 229 -135 218 -87 473 -36 621 123 129
140 261 413 322 666 13 57 25 110 30 140 3 19 10 60 15 90 5 30 12 80 15 110
3 30 7 71 10 90 21 172 21 628 0 860 -2 25 -7 77 -10 115 -3 39 -8 86 -10 105
-2 19 -7 64 -10 100 -4 36 -8 76 -10 90 -4 23 -8 56 -20 155 -3 22 -12 81 -20
130 -8 50 -17 110 -20 135 -3 25 -8 52 -10 60 -2 8 -6 33 -9 55 -21 148 -129
678 -220 1075 -41 182 -74 322 -191 820 -104 439 -155 710 -160 855 -3 84 1
112 21 175 31 97 62 150 99 171 26 15 35 16 69 4 49 -17 105 -77 159 -171 l43
-74 28 57 c69 142 95 308 74 473 -25 186 -101 361 -192 443 -40 35 -120 81
-170 97 -38 12 -162 20 -201 13z"/>
<path d="M8793 16784 c-333 -56 -460 -446 -368 -1123 21 -149 24 -165 52 -261
73 -254 201 -472 382 -650 48 -47 194 -170 326 -275 132 -104 245 -194 252
-200 56 -47 114 -88 119 -83 2 3 6 14 8 24 9 44 66 282 76 314 9 31 87 352 95
390 2 8 14 59 28 113 l25 98 -236 197 c-130 108 -247 206 -260 217 -49 41 -66
129 -37 185 20 39 56 65 123 90 251 94 499 -49 708 -410 83 -144 79 -127 50
-216 -46 -143 -127 -404 -128 -411 0 -5 -5 -19 -10 -33 -10 -26 -127 -393
-157 -495 -10 -33 -102 -325 -205 -650 -103 -324 -207 -655 -232 -735 -26 -80
-63 -199 -84 -265 -39 -122 -108 -340 -207 -655 -30 -96 -59 -188 -64 -205
-12 -36 -99 -311 -167 -530 -58 -187 -74 -243 -97 -345 -23 -101 -23 -101 -39
-185 -2 -11 -7 -42 -10 -70 -12 -85 -17 -119 -21 -145 -28 -186 -27 -647 0
-860 3 -19 7 -55 10 -80 6 -50 11 -92 19 -148 7 -46 34 -261 42 -322 6 -58 13
-107 19 -145 3 -16 7 -48 9 -70 3 -22 10 -80 16 -130 7 -49 14 -108 16 -130 2
-22 6 -51 9 -65 2 -14 7 -47 11 -75 3 -27 7 -61 9 -75 2 -14 9 -63 15 -110 6
-47 15 -99 21 -116 22 -69 102 -146 173 -165 102 -28 139 -16 406 133 129 72
250 140 268 150 18 10 43 24 55 32 12 7 47 27 77 43 30 17 71 39 90 50 19 11
188 105 375 210 187 105 363 203 390 218 28 16 100 56 160 90 61 34 184 103
275 155 91 51 190 106 220 123 330 179 585 473 694 802 30 90 71 263 81 345 4
30 8 58 10 61 8 11 19 209 19 319 0 191 -17 339 -59 515 -9 39 -18 77 -20 86
-28 132 -133 386 -245 594 -65 121 -252 391 -336 485 -12 14 -46 52 -76 85
-128 144 -224 232 -288 263 -155 76 -341 42 -460 -84 -51 -54 -90 -126 -151
-284 -16 -41 -34 -84 -39 -95 -24 -54 -124 -352 -178 -530 -81 -263 -112 -391
-105 -425 3 -16 20 -43 39 -61 28 -27 42 -33 81 -33 l46 -1 113 150 c221 294
296 353 404 321 130 -38 245 -227 336 -549 46 -165 36 -251 -39 -330 -26 -28
-145 -109 -317 -217 -151 -95 -291 -183 -310 -196 -19 -12 -224 -142 -455
-289 -406 -257 -421 -266 -463 -262 -46 5 -78 32 -88 74 -7 25 -1 44 96 343
34 102 135 412 226 690 91 278 173 530 184 560 10 30 84 258 165 505 81 248
164 502 185 565 21 63 111 338 200 610 89 272 211 646 272 830 60 184 139 425
175 535 35 110 69 211 73 225 18 48 36 186 34 252 -6 187 -80 379 -200 516
-77 88 -468 408 -725 593 -225 162 -524 346 -714 438 -314 153 -597 225 -772
195z"/>
<path d="M18620 16764 c-309 -104 -433 -178 -531 -319 -42 -61 -93 -170 -104
-225 -34 -163 -33 -1373 0 -2090 9 -181 15 -305 20 -375 2 -38 7 -115 10 -170
3 -55 8 -122 10 -150 2 -27 7 -90 10 -140 3 -49 8 -108 10 -130 3 -22 7 -76
10 -120 4 -44 8 -96 10 -115 2 -19 7 -66 10 -105 3 -38 7 -86 10 -105 2 -19 7
-66 10 -105 8 -90 14 -141 20 -185 2 -19 7 -60 10 -90 3 -30 8 -68 10 -85 2
-16 7 -57 10 -90 3 -33 8 -71 11 -85 2 -14 6 -45 9 -70 3 -25 17 -124 31 -220
14 -96 27 -191 30 -210 2 -19 6 -46 9 -60 2 -14 7 -38 9 -55 3 -16 12 -73 21
-125 9 -52 18 -108 21 -125 23 -145 118 -622 149 -755 2 -8 8 -37 15 -65 26
-118 61 -263 70 -295 5 -19 24 -89 41 -155 64 -244 114 -412 209 -695 71 -212
161 -457 205 -557 10 -21 21 -47 25 -58 56 -145 211 -466 313 -650 99 -180
127 -211 225 -251 50 -21 69 -23 157 -19 55 3 109 6 120 9 11 2 47 7 80 10
170 20 530 86 755 140 536 129 1082 341 1510 587 174 99 476 303 509 343 10
11 5 29 -22 83 -54 106 -160 285 -255 428 -72 109 -303 428 -322 445 -3 3 -41
48 -85 100 -266 318 -398 445 -532 509 -123 60 -195 76 -348 75 -132 0 -145
-2 -235 -33 -154 -53 -333 -160 -449 -267 -102 -94 -145 -247 -106 -379 30
-104 106 -244 194 -360 46 -61 138 -155 151 -155 4 0 18 28 30 62 52 143 144
226 226 203 16 -5 34 -9 40 -10 6 -2 30 -15 53 -29 69 -44 155 -135 229 -244
l24 -36 -33 -27 c-147 -121 -494 -251 -809 -305 -14 -2 -34 -6 -46 -9 -11 -2
-45 -7 -75 -11 -30 -3 -56 -8 -60 -10 -9 -5 -153 -18 -196 -17 -96 1 -156 45
-227 166 -68 116 -137 254 -211 422 -8 17 -24 55 -38 85 -13 30 -41 100 -61
155 -21 55 -42 109 -47 120 -8 19 -135 394 -136 405 -1 3 -7 25 -14 50 -7 25
-14 50 -15 55 -2 6 -10 35 -19 65 -9 30 -18 62 -20 70 -2 8 -19 76 -39 150
-47 182 -140 599 -162 730 -2 14 -13 72 -24 130 -10 58 -22 121 -25 140 -3 19
-8 46 -10 60 -9 51 -35 216 -40 255 -3 22 -10 65 -15 95 -9 57 -20 136 -25
180 -2 22 -8 66 -20 155 -9 66 -25 193 -30 245 -3 30 -8 71 -10 90 -5 43 -13
117 -20 190 -3 30 -8 73 -10 95 -2 22 -7 72 -10 110 -4 39 -8 89 -10 112 -2
24 -7 78 -10 120 -3 43 -8 98 -10 123 -6 57 -14 173 -20 275 -3 44 -7 116 -10
160 -13 210 -15 248 -30 600 -29 669 -33 1644 -11 2228 5 105 3 137 -7 137 -6
0 -46 -12 -87 -26z"/>
<path d="M17361 16125 c-140 -56 -329 -182 -503 -334 -103 -91 -306 -298 -396
-406 -42 -49 -79 -92 -82 -95 -23 -19 -276 -359 -320 -430 -5 -8 -25 -39 -45
-67 -19 -29 -35 -55 -35 -57 0 -3 -18 -32 -40 -65 -22 -33 -40 -65 -40 -71 0
-5 -4 -10 -10 -10 -5 0 -10 -4 -10 -9 0 -5 -24 -51 -54 -103 -70 -122 -221
-432 -284 -583 -85 -205 -135 -348 -221 -640 -40 -134 -100 -420 -117 -550 -2
-22 -6 -47 -9 -55 -2 -8 -7 -46 -10 -85 -4 -38 -8 -81 -10 -95 -19 -125 -26
-567 -12 -772 6 -95 11 -139 33 -303 5 -37 26 -162 39 -229 3 -15 13 -58 21
-95 9 -36 17 -73 19 -81 9 -43 26 -104 49 -185 124 -420 302 -815 545 -1205
36 -58 67 -107 71 -110 3 -3 18 -25 34 -50 71 -111 349 -478 390 -515 6 -5 24
-26 40 -45 67 -82 191 -216 342 -367 140 -142 165 -163 192 -163 45 0 75 33
74 80 0 22 -15 188 -17 201 -2 9 -6 57 -10 105 -3 49 -8 103 -11 119 -2 17 -6
57 -9 90 -24 304 -24 305 -158 434 -318 308 -510 662 -561 1039 -4 30 0 35 57
76 123 86 393 224 492 252 6 1 35 11 65 22 30 11 78 27 106 35 l52 15 17 -66
c16 -65 20 -82 29 -119 18 -77 150 -580 196 -743 18 -66 98 -355 103 -375 14
-58 174 -575 226 -730 74 -226 158 -458 191 -530 5 -11 21 -49 36 -85 72 -169
155 -239 325 -279 74 -17 502 -106 569 -118 14 -2 59 -11 100 -20 41 -8 88
-15 105 -15 34 1 65 32 65 67 0 12 -32 82 -70 156 -263 500 -506 1070 -689
1616 -74 222 -170 536 -186 609 -2 10 -15 60 -29 109 -15 50 -28 103 -31 119
-3 16 -8 32 -10 36 -13 22 -172 744 -190 866 -4 21 -8 46 -10 54 -5 17 -6 25
-40 230 -14 80 -27 163 -30 185 -3 22 -10 69 -15 105 -5 36 -12 85 -15 110 -3
25 -8 52 -10 60 -4 14 -14 109 -20 175 -3 38 -16 155 -20 176 -2 9 -6 52 -10
97 -3 44 -8 91 -10 104 -2 12 -6 59 -10 103 -3 44 -8 98 -10 120 -5 43 -11
124 -20 280 -3 55 -8 129 -10 165 -19 318 -25 1083 -12 1430 10 248 23 496 32
590 2 19 6 76 10 125 6 88 9 119 20 220 2 28 7 77 10 110 3 33 8 71 10 85 3
14 8 66 11 117 6 83 5 94 -16 127 -48 78 -126 91 -249 41z m-636 -1599 c18
-13 19 -37 21 -542 2 -478 9 -923 19 -1139 8 -175 17 -332 20 -370 2 -22 7
-71 10 -110 5 -69 27 -226 39 -276 8 -34 -18 -67 -58 -73 -117 -20 -241 -52
-445 -116 -79 -24 -144 -39 -157 -36 -16 4 -26 18 -34 44 -12 42 -46 231 -55
306 -3 27 -8 52 -9 55 -2 3 -8 60 -12 126 -16 239 -7 525 22 710 13 80 23 138
40 225 25 128 107 389 168 539 37 91 138 304 166 351 109 184 184 297 205 312
16 12 39 9 60 -6z"/>
<path d="M11610 14765 c0 -8 97 -290 110 -320 17 -39 212 -651 233 -730 3 -11
26 -90 52 -175 46 -154 62 -213 131 -470 34 -129 140 -568 149 -620 2 -14 16
-79 29 -145 14 -66 39 -199 55 -295 28 -167 33 -197 46 -300 3 -25 8 -56 10
-70 2 -14 7 -54 10 -90 3 -36 7 -78 9 -95 9 -65 19 -306 18 -415 -1 -188 -24
-391 -58 -509 -8 -29 -13 -55 -11 -57 5 -6 135 132 194 207 28 36 72 100 98
143 46 78 125 252 125 277 1 8 7 32 15 54 28 77 52 253 60 455 2 36 4 73 4 82
1 16 5 16 54 -3 152 -60 337 -108 481 -125 26 -3 65 -7 85 -9 43 -5 243 -6
286 -1 45 5 117 15 140 20 121 25 183 46 295 98 36 16 69 30 74 31 5 1 10 -16
11 -38 7 -142 17 -295 21 -325 47 -306 169 -552 394 -790 l90 -95 -16 54 c-17
58 -21 77 -30 130 -3 18 -8 43 -10 55 -25 124 -25 689 0 821 2 11 7 51 11 88
3 37 8 76 10 86 2 10 6 42 9 72 3 30 8 64 10 75 2 12 7 39 10 60 23 147 42
248 100 540 2 10 9 39 15 64 5 25 17 74 25 110 59 257 177 708 246 940 58 195
92 308 100 330 4 14 30 93 55 175 55 175 182 549 219 649 l26 69 -32 -7 c-87
-17 -264 -122 -387 -229 -205 -180 -492 -551 -594 -768 -55 -119 -130 -344
-151 -459 -2 -14 -12 -59 -21 -100 -9 -41 -18 -91 -21 -110 -3 -19 -9 -60 -14
-90 -5 -30 -11 -75 -14 -100 -3 -25 -10 -83 -15 -130 -6 -47 -14 -130 -17
-185 -4 -55 -8 -111 -9 -125 -2 -14 -3 -30 -4 -36 -1 -16 -116 -69 -225 -105
-149 -50 -275 -67 -476 -63 -96 1 -191 5 -210 9 -19 3 -45 8 -57 10 -76 12
-197 40 -253 57 -98 30 -210 70 -214 77 -4 6 -6 34 -22 226 -10 124 -11 137
-18 190 -3 28 -8 70 -11 95 -3 25 -10 70 -15 100 -5 30 -12 69 -14 85 -3 17
-8 41 -11 55 -2 14 -7 37 -10 53 -23 122 -52 230 -97 362 -76 224 -197 427
-417 695 -75 92 -273 282 -357 342 -116 83 -304 171 -304 143z"/>
</g>
</svg>
