<?xml version="1.0" encoding="utf-8"?>
<!-- Generator: Adobe Illustrator 26.0.3, SVG Export Plug-In . SVG Version: 6.00 Build 0)  -->
<svg version="1.1" id="Layer_1" xmlns="http://www.w3.org/2000/svg" xmlns:xlink="http://www.w3.org/1999/xlink" x="0px" y="0px"
	 viewBox="0 0 2920 1920" style="enable-background:new 0 0 2920 1920;" xml:space="preserve">
<style type="text/css">
	.st0{fill:#FFCD36;}
</style>
<g>
	<path class="st0" d="M1561.9,899.9v-2.2c-0.3-0.3-0.4-0.7-0.4-1.1c-1.2-3.9-1.1-8-1.7-11.9c-11.8-80-72.9-144.3-152-159.9
		c-7-1.4-14-2.4-21.1-2.9c-0.6-0.1-1.3,0.1-1.4-0.8h-1.5c-0.2,0.9-0.8,0.7-1.5,0.6c-0.5,0-1,0-1.5,0c-0.7,0-1.5,0-2.2,0v0
		c-0.6,0.1-1.2,0-1.5-0.6h-13.5c-0.3,0.7-0.9,0.8-1.5,0.6c-0.5,0-1,0-1.5,0h-1.5c-0.6,0.1-1.3,0.2-1.5-0.6h-3
		c-3.9,1.7-8.1,1.4-12.2,2c-80,12.3-144,71.4-159.4,150.6c-14.1,72.4,7.2,134.2,62.2,183.6c30,26.9,65.7,42,105.8,45.8
		c57,5.3,107.1-11.3,149.4-50c32.3-29.6,51.7-66.5,59.2-109.6c0.8-4.8,0.6-9.8,2.4-14.4v-3c-1.3-0.4-0.6-1.4-0.6-2.2
		c-0.2-0.7-0.2-1.2,0.6-1.6v-3c-1.2-1.5-1.1-3,0-4.5v-3.7c-1.1-1.5-1.2-3,0-4.5v-3c-1-0.6-0.8-1.4-0.6-2.3
		C1561.2,900.8,1561,900.1,1561.9,899.9z M1463.5,893.5c-18.2-0.7-34.6-6.2-49.5-16.7c-0.6-0.4-1.2-0.9-1.8-1.3
		c-0.2-0.1-0.5-0.1-0.8-0.1c-0.8,1-0.4,2.1-0.4,3.2c0.1,24.8,0.2,49.6,0.2,74.4c0,32.2-20.3,58.5-51.5,66.8
		c-37.3,9.9-75.5-13.5-84.1-51.6c-8.2-36.6,16.7-73.6,54.3-80.4c6.9-1.3,13.8-1.6,20.8-0.7c1.4,0.2,2.2,0.4,2.2,2.1
		c-0.1,11.3,0,22.7,0,34.2c-7.8-1.9-15.2-2-22.5,1c-14.8,6.2-22.9,21.9-19.2,37.5c3.5,14.8,18,25.5,33.3,24.6
		c16.1-1,28.9-13.3,30.4-29.2c0.2-2.1,0.3-4.2,0.3-6.3c0-48,0.1-96,0-144c0-3.1,0.6-4,3.8-3.9c9.1,0.2,18.2,0.3,27.3,0
		c3.6-0.1,4.7,0.8,5,4.5c2.1,23.4,17.8,42,40.4,48.3c4,1.1,8,1.9,12.1,1.9c2,0,2.5,0.6,2.5,2.6c-0.1,10.1-0.1,20.2,0,30.3
		C1466.5,893.1,1465.8,893.6,1463.5,893.5z"/>
</g>
</svg>
