<svg xmlns="http://www.w3.org/2000/svg" viewBox="0 0 176.96 108.07"><defs><style>.cls-1{fill:#ffcd34;stroke:#ffcd34;stroke-linecap:round;stroke-linejoin:round;stroke-width:6px;}</style></defs><g id="Layer_2" data-name="Layer 2"><g id="Layer_1-2" data-name="Layer 1"><rect class="cls-1" x="3" y="53.23" width="170.92" height="1.62"/><path class="cls-1" d="M116.72,105.07h-1.37c0-14.56,4-26.35,11.86-35,16.92-18.7,46.45-16.75,46.75-16.72l-.09,1.61c-.28,0-29.24-1.93-45.72,16.29-7.59,8.38-11.43,19.77-11.43,33.86"/><path class="cls-1" d="M171.29,54.83c-7.68,0-30.15-1.39-44.08-16.79-7.87-8.7-11.86-20.49-11.86-35h1.37c0,14.09,3.84,25.48,11.43,33.86,16.48,18.22,45.43,16.31,45.72,16.29l.09,1.61c-.05,0-1,.07-2.67.07"/></g></g></svg>