<svg xmlns="http://www.w3.org/2000/svg" viewBox="0 0 383.14 383.03"><defs><style>.cls-1{fill:#ffcd36;}</style></defs><g id="Layer_2" data-name="Layer 2"><g id="Layer_1-2" data-name="Layer 1"><path class="cls-1" d="M383.14,178.84v-2.25a1.53,1.53,0,0,1-.38-1.07c-1.24-3.86-1.08-8-1.66-11.92-11.82-80-72.91-144.26-152-159.91A176.19,176.19,0,0,0,208,.75c-.59-.05-1.27.1-1.45-.75h-1.5c-.17,1-.84.73-1.46.63h-3.73A1.26,1.26,0,0,1,198.32,0H184.85a1.26,1.26,0,0,1-1.53.65l-1.5,0h-1.5c-.61.08-1.26.25-1.46-.63h-3c-3.9,1.71-8.14,1.41-12.21,2-80,12.32-144,71.43-159.43,150.59C-9.9,225,11.46,286.84,66.42,336.25c30,26.94,65.72,42.05,105.76,45.81,57,5.34,107.11-11.31,149.36-50,32.31-29.58,51.72-66.46,59.18-109.64.83-4.8.58-9.78,2.42-14.41v-3c-1.28-.44-.58-1.42-.62-2.2s-.15-1.25.62-1.55v-3a3.37,3.37,0,0,1,0-4.49v-3.74a3.36,3.36,0,0,1,0-4.49v-3c-1-.55-.75-1.44-.65-2.29C382.42,179.68,382.22,179,383.14,178.84Zm-98.42-6.39a89.85,89.85,0,0,1-49.48-16.68c-.61-.43-1.21-.89-1.83-1.29a2.24,2.24,0,0,0-.76-.14c-.81,1-.36,2.12-.36,3.16.06,24.81.22,49.62.23,74.43,0,32.25-20.3,58.53-51.52,66.82-37.34,9.91-75.46-13.47-84.06-51.56-8.25-36.6,16.74-73.58,54.34-80.44a67.41,67.41,0,0,1,20.83-.71c1.42.18,2.25.37,2.24,2.11-.06,11.33,0,22.66,0,34.25-7.78-1.92-15.22-2.05-22.54,1a32.34,32.34,0,0,0-19.19,37.54,32.73,32.73,0,0,0,33.26,24.61,32.31,32.31,0,0,0,30.4-29.19c.2-2.11.27-4.23.27-6.35q0-72,0-144c0-3,.62-4,3.8-3.89,9.1.25,18.21.29,27.3,0,3.62-.12,4.7.82,5,4.51,2.09,23.41,17.79,42,40.42,48.33a45,45,0,0,0,12.13,1.88c2,0,2.51.59,2.49,2.55-.1,10.09-.12,20.19,0,30.29C287.73,172.06,287,172.53,284.72,172.45Z"/></g></g></svg>