<svg xmlns="http://www.w3.org/2000/svg" viewBox="0 0 124.71 102.07"><defs><style>.cls-1{fill:#ffcd34;}</style></defs><g id="Layer_2" data-name="Layer 2"><g id="Layer_1-2" data-name="Layer 1"><path class="cls-1" d="M116.15,92.16c-2.68,0-2.68-2.67-5.35-2.67s-2.67,2.67-5.34,2.67-2.67-2.67-5.34-2.67-2.67,2.67-5.34,2.67-2.68-2.67-5.35-2.67-2.67,2.67-5.34,2.67-2.67-2.67-5.34-2.67c-2,0-2.5,1.49-3.74,2.24,0-.21,0-.42,0-.64a8.45,8.45,0,0,0-4.7-6.65,25.61,25.61,0,0,0,.2-3.21c0-8.25-3.65-14.94-8.15-14.94S54.21,73,54.21,81.23a26.79,26.79,0,0,0,.31,4.08,10.49,10.49,0,0,0-4.6,6c-.9-.78-1.53-1.85-3.22-1.85-2.67,0-2.67,2.67-5.34,2.67S38.69,89.49,36,89.49s-2.68,2.67-5.35,2.67S28,89.49,25.34,89.49,22.67,92.16,20,92.16s-2.67-2.67-5.34-2.67S12,92.16,9.32,92.16H116.15"/><path class="cls-1" d="M22,44.88C6.07,46.66,0,64.06,0,64.06A64.56,64.56,0,0,0,4.5,84.39c3.47-4.77,9.12-10,17.49-11C34.57,72,47.38,82,54.26,90.25a64.61,64.61,0,0,0,4.12-22.62C54.21,59.6,37.91,43.09,22,44.88"/><path class="cls-1" d="M22,73.43c-8.37.93-14,6.19-17.49,11C8.1,93,14.57,101.15,26.16,102a33.73,33.73,0,0,0,28.05-11.6l0-.13C47.38,82,34.57,72,22,73.43"/><path class="cls-1" d="M20.1,60.09c-5.3-16.89-6.6-34-3.55-49.43C17.07,8,18,5,17.28,2.46S14.26-.72,12.4.93C10,3.08,9.28,8.07,8.71,11.7A91.28,91.28,0,0,0,7.5,25.53,110.07,110.07,0,0,0,12.13,58a1.36,1.36,0,0,0,.74.85,69.14,69.14,0,0,0,6.49,2.6.5.5,0,0,0,.68-.34,1.1,1.1,0,0,0,.06-1"/><path class="cls-1" d="M104.67,61.06a.5.5,0,0,0,.69.34c2.16-.74,4.33-1.61,6.49-2.6a1.45,1.45,0,0,0,.74-.85,110.39,110.39,0,0,0,4.62-32.42A92.59,92.59,0,0,0,116,11.7c-.57-3.63-1.26-8.62-3.7-10.77-1.86-1.65-4.2-1.08-4.88,1.53s.21,5.55.73,8.2c3.06,15.39,1.75,32.54-3.55,49.43a1.1,1.1,0,0,0,.06,1"/><path class="cls-1" d="M102.73,73.43c8.36.93,14,6.19,17.48,11a64.56,64.56,0,0,0,4.5-20.33s-6.06-17.4-22-19.18S70.51,59.6,66.34,67.63a64.71,64.71,0,0,0,4.11,22.62C77.33,82,90.15,72,102.73,73.43"/><path class="cls-1" d="M98.56,102c11.59-.83,18-9,21.65-17.59-3.47-4.78-9.12-10-17.48-11C90.15,72,77.33,82,70.45,90.25l.06.13A33.71,33.71,0,0,0,98.56,102"/></g></g></svg>