<?xml version="1.0" encoding="utf-8"?>
<!-- Generator: Adobe Illustrator 26.0.3, SVG Export Plug-In . SVG Version: 6.00 Build 0)  -->
<svg version="1.1" id="Layer_1" xmlns="http://www.w3.org/2000/svg" xmlns:xlink="http://www.w3.org/1999/xlink" x="0px" y="0px"
	 viewBox="0 0 800 800" style="enable-background:new 0 0 800 800;" xml:space="preserve">
<style type="text/css">
	.st0{fill:#FFCD36;}
</style>
<path class="st0" d="M574.5,293.8c-7-18.2-21.4-32.5-39.6-39.5c-12.4-4.6-25.5-7-38.7-7.2c-22-1-28.5-1.3-84.2-1.3
	s-62.2,0.2-84.2,1.3c-13.2,0.2-26.3,2.6-38.7,7.2c-18.2,7-32.5,21.4-39.5,39.6c-4.6,12.4-7,25.5-7.2,38.7c-1,22-1.3,28.5-1.3,84.2
	s0.2,62.2,1.3,84.2c0.2,13.2,2.6,26.3,7.2,38.7c7,18.2,21.4,32.5,39.6,39.5c12.4,4.6,25.5,7,38.7,7.2c22,1,28.5,1.2,84.2,1.2
	s62.2-0.2,84.2-1.2c13.2-0.1,26.3-2.5,38.7-7.1c18.2-7,32.5-21.4,39.5-39.6c4.6-12.4,7-25.5,7.2-38.7c1-22,1.2-28.5,1.2-84.2
	s-0.2-62.2-1.2-84.2C581.5,319.3,579,306.2,574.5,293.8L574.5,293.8z M412,523.7c-59.1,0-107-47.9-107-107s47.9-107,107-107
	s107,47.9,107,107c0,0,0,0,0,0C519,475.8,471.1,523.7,412,523.7z M523.3,330.5c-13.8,0-25-11.2-25-25c0-13.8,11.2-25,25-25
	c13.8,0,25,11.2,25,25C548.3,319.3,537.1,330.5,523.3,330.5L523.3,330.5z M481.5,416.7c0,38.4-31.1,69.5-69.5,69.5
	c-38.4,0-69.5-31.1-69.5-69.5s31.1-69.5,69.5-69.5S481.5,378.3,481.5,416.7L481.5,416.7z M412,16.7c-220.9,0-400,179.1-400,400
	s179.1,400,400,400s400-179.1,400-400S633,16.7,412,16.7C412,16.7,412,16.7,412,16.7z M619.1,502.5c-0.4,17.3-3.6,34.4-9.7,50.6
	c-10.8,28-32.9,50.1-60.9,60.9c-16.2,6.1-33.3,9.4-50.5,9.7c-22.2,1-29.3,1.2-85.9,1.2s-63.7-0.2-85.9-1.2
	c-17.3-0.4-34.4-3.6-50.5-9.7c-28-10.8-50.1-32.9-60.9-60.9c-6.1-16.2-9.4-33.3-9.7-50.5c-1-22.2-1.3-29.3-1.3-85.9
	s0.2-63.7,1.3-85.9c0.3-17.3,3.6-34.4,9.7-50.5c10.8-28,33-50.1,61-61c16.2-6.1,33.3-9.3,50.5-9.7c22.2-1,29.3-1.3,85.9-1.3
	s63.7,0.2,85.9,1.3c17.3,0.3,34.4,3.6,50.5,9.7c28,10.8,50.1,33,60.9,61c6.1,16.2,9.4,33.3,9.7,50.5c1,22.3,1.2,29.3,1.2,85.9
	S620.1,480.3,619.1,502.5L619.1,502.5z"/>
</svg>
