<svg id="Layer_1" data-name="Layer 1" xmlns="http://www.w3.org/2000/svg" viewBox="0 0 768 768"><defs><style>.cls-1{fill:#ffcd36;}</style></defs><path class="cls-1" d="M398.54,16c-212.08,0-384,171.92-384,384s171.92,384,384,384,384-171.92,384-384S610.62,16,398.54,16ZM517.1,553.48c-5.92,0-10-2.24-14.36-4.88-40.52-24.52-90.72-37.4-145.12-37.4-27.76,0-57.72,3.28-89,9.68l-3.8,1c-4,1-8,2-11.16,2A22.16,22.16,0,0,1,231.14,502v-.52c0-12.72,7.2-21.72,19.16-24a479,479,0,0,1,107.48-12.64c63.2,0,119.76,14.6,168,43.6,8.32,4.84,13.52,10.4,13.52,22.76a22.28,22.28,0,0,1-22.24,22.28Zm31.12-87.32c-7.08,0-11.68-2.68-15.8-5.08-73-43.36-181.88-57.72-271.4-33.88-1.36.4-2.72.82-4.08,1.24a33.16,33.16,0,0,1-11,2.12,26.8,26.8,0,0,1-26.68-26.88c0-14.28,7.44-24.28,21-28.08a397.93,397.93,0,0,1,113.6-15.72c75.44,0,148.56,18.92,205.84,53.2,10.44,5.92,15.16,14.12,15.16,26.32a26.71,26.71,0,0,1-26.64,26.76Zm35.32-99.52a30.94,30.94,0,0,1-16.84-4.92c-49.56-29.76-126.84-47.44-207-47.44-41.72,0-79.6,4.6-112.68,13.52-1.12.28-2.22.6-3.32,1a44.25,44.25,0,0,1-12.48,2.32A31.19,31.19,0,0,1,199.94,300v-.6c0-15.44,8.68-27.24,23.16-31.52C263,256.08,309,250.16,359.7,250.16c91.24,0,178.12,20.24,238.28,55.64,11.36,6.4,16.92,16.16,16.92,29.68a31,31,0,0,1-30.76,31.16Z" transform="translate(-14.54 -16)"/></svg>