<svg id="Layer_1" data-name="Layer 1" xmlns="http://www.w3.org/2000/svg" viewBox="0 0 768 768"><defs><style>.cls-1{fill:#ffcd36;}</style></defs><path class="cls-1" d="M464.12,393.32,374.28,351.4c-7.84-3.64-14.28.44-14.28,9.12v79c0,8.68,6.44,12.76,14.28,9.12l89.8-41.92c7.88-3.68,7.88-9.68,0-13.36ZM400,16C187.92,16,16,187.92,16,400S187.92,784,400,784,784,612.08,784,400,612.08,16,400,16Zm0,540c-196.56,0-200-17.72-200-156s3.44-156,200-156,200,17.72,200,156S596.56,556,400,556Z" transform="translate(-16 -16)"/></svg>